<svg height="438.75969" viewBox="0 0 400 438.75968992" width="400" xmlns="http://www.w3.org/2000/svg"><g fill-rule="evenodd"><path d="m368.68 20.047c-.334.524-1.539 3.473-2.678 6.553-23.794 64.375-141.278 185.222-249.872 257.026-9.803 6.482-9.154 6.492-14.015-.226-32.633-45.102-47.118-109.916-40.094-179.4 1.382-13.671 1.059-13.044 8.313-16.129 39.602-16.842 137.943-21.853 217.42-11.078 8.391 1.137 8.672 1.119 10.306-.693 6.742-7.478 29.54-40.481 29.54-42.766 0-2.714-40.547-8.767-75.85-11.323-81.38-5.893-160.392 1.931-220.75 21.86-14.891 4.916-14.19 4.392-15.151 11.329-7.556 54.503-.875 139.72 14.955 190.76 10.535 33.967 32.722 73.617 53.239 95.14 3.242 3.401 3.394 3.385 10.684-1.168 34.585-21.602 73.782-51.592 118.273-90.494 95.839-83.799 148.612-156.764 156.191-215.953 1.255-9.798 1.025-15.846-.511-13.438" fill="#042c4c"/><path d="m374.393 116.251c-5.606 4.317-13.924 10.719-18.485 14.225s-8.394 6.539-8.518 6.74c-.335.542-1.235 8.587-2.594 23.184-2.813 30.22-4.737 41.999-9.632 58.954-18.103 62.704-67.588 118.712-132.636 150.12-8.741 4.22-8.99 4.243-14.214 1.301-8.612-4.849-12.151-7.116-32.617-20.896-6.436-4.333-11.947-7.879-12.247-7.879-2.244 0-32.05 20.082-32.05 21.594 0 .603 24.848 19.863 37.8 29.301 13.028 9.492 33.844 23.057 43.492 28.34l2.491 1.365 3.425-1.744c64.162-32.674 120.108-84.567 149.486-138.656 24.566-45.231 33.857-84.424 36.505-154 .335-8.8.687-16.595.784-17.323.179-1.356-.063-2.477-.533-2.477-.146 0-4.852 3.533-10.457 7.851" fill="#2ad9ff"/></g></svg>